<mxfile host="app.diagrams.net" agent="Mozilla/5.0 (Windows NT 10.0; Win64; x64) AppleWebKit/537.36 (KHTML, like Gecko) Chrome/134.0.0.0 Safari/537.36 Edg/134.0.0.0" version="26.1.0">
  <diagram name="Page-1" id="c8i4xWSUrDCnGqkAg3s9">
    <mxGraphModel dx="1253" dy="1772" grid="1" gridSize="10" guides="1" tooltips="1" connect="1" arrows="1" fold="1" page="1" pageScale="1" pageWidth="850" pageHeight="1100" math="0" shadow="0">
      <root>
        <mxCell id="0" />
        <mxCell id="1" parent="0" />
        <mxCell id="BZ3pMbnUHM3Q_ffKW0gH-1" value="" style="rounded=0;whiteSpace=wrap;html=1;movable=1;resizable=1;rotatable=1;deletable=1;editable=1;locked=0;connectable=1;" vertex="1" parent="1">
          <mxGeometry x="-70" y="-30" width="920" height="950" as="geometry" />
        </mxCell>
        <mxCell id="BZ3pMbnUHM3Q_ffKW0gH-2" value="SISTEM INFORMASI PROFIL AKADEMIK" style="text;strokeColor=none;fillColor=none;html=1;fontSize=24;fontStyle=1;verticalAlign=middle;align=center;" vertex="1" parent="1">
          <mxGeometry x="165" width="490" height="40" as="geometry" />
        </mxCell>
        <mxCell id="BZ3pMbnUHM3Q_ffKW0gH-4" value="&lt;font style=&quot;font-size: 24px;&quot;&gt;Login&lt;/font&gt;" style="ellipse;whiteSpace=wrap;html=1;" vertex="1" parent="1">
          <mxGeometry x="330" y="210" width="160" height="80" as="geometry" />
        </mxCell>
        <mxCell id="BZ3pMbnUHM3Q_ffKW0gH-5" value="&lt;font style=&quot;font-size: 24px;&quot;&gt;Mengelola Data&lt;/font&gt;" style="ellipse;whiteSpace=wrap;html=1;" vertex="1" parent="1">
          <mxGeometry x="330" y="380" width="160" height="80" as="geometry" />
        </mxCell>
        <mxCell id="BZ3pMbnUHM3Q_ffKW0gH-6" value="&lt;font style=&quot;font-size: 24px;&quot;&gt;Mengelola User&lt;/font&gt;" style="ellipse;whiteSpace=wrap;html=1;" vertex="1" parent="1">
          <mxGeometry x="330" y="550" width="160" height="80" as="geometry" />
        </mxCell>
        <mxCell id="BZ3pMbnUHM3Q_ffKW0gH-7" value="&lt;font style=&quot;font-size: 24px;&quot;&gt;Kepala Sekolah&lt;/font&gt;" style="shape=umlActor;verticalLabelPosition=bottom;verticalAlign=top;html=1;outlineConnect=0;" vertex="1" parent="1">
          <mxGeometry y="367.5" width="70" height="115" as="geometry" />
        </mxCell>
        <mxCell id="BZ3pMbnUHM3Q_ffKW0gH-8" value="&lt;font style=&quot;font-size: 24px;&quot;&gt;Admin&lt;/font&gt;" style="shape=umlActor;verticalLabelPosition=bottom;verticalAlign=top;html=1;outlineConnect=0;" vertex="1" parent="1">
          <mxGeometry x="750" y="362.5" width="70" height="115" as="geometry" />
        </mxCell>
        <mxCell id="BZ3pMbnUHM3Q_ffKW0gH-10" value="" style="endArrow=none;html=1;rounded=0;exitX=0.5;exitY=0.5;exitDx=0;exitDy=0;exitPerimeter=0;entryX=0;entryY=0.5;entryDx=0;entryDy=0;startFill=0;" edge="1" parent="1" source="BZ3pMbnUHM3Q_ffKW0gH-7" target="BZ3pMbnUHM3Q_ffKW0gH-6">
          <mxGeometry width="50" height="50" relative="1" as="geometry">
            <mxPoint x="70" y="410" as="sourcePoint" />
            <mxPoint x="120" y="360" as="targetPoint" />
          </mxGeometry>
        </mxCell>
        <mxCell id="BZ3pMbnUHM3Q_ffKW0gH-11" value="" style="endArrow=none;html=1;rounded=0;exitX=0.5;exitY=0.5;exitDx=0;exitDy=0;exitPerimeter=0;entryX=1;entryY=0.5;entryDx=0;entryDy=0;startFill=0;" edge="1" parent="1" source="BZ3pMbnUHM3Q_ffKW0gH-8" target="BZ3pMbnUHM3Q_ffKW0gH-5">
          <mxGeometry width="50" height="50" relative="1" as="geometry">
            <mxPoint x="760" y="580" as="sourcePoint" />
            <mxPoint x="810" y="530" as="targetPoint" />
          </mxGeometry>
        </mxCell>
        <mxCell id="BZ3pMbnUHM3Q_ffKW0gH-12" value="" style="endArrow=none;html=1;rounded=0;exitX=0;exitY=0.5;exitDx=0;exitDy=0;entryX=0.5;entryY=0.5;entryDx=0;entryDy=0;entryPerimeter=0;startFill=0;" edge="1" parent="1" source="BZ3pMbnUHM3Q_ffKW0gH-4" target="BZ3pMbnUHM3Q_ffKW0gH-7">
          <mxGeometry width="50" height="50" relative="1" as="geometry">
            <mxPoint x="250" y="310" as="sourcePoint" />
            <mxPoint x="300" y="260" as="targetPoint" />
          </mxGeometry>
        </mxCell>
        <mxCell id="BZ3pMbnUHM3Q_ffKW0gH-13" value="" style="endArrow=none;html=1;rounded=0;exitX=1;exitY=0.5;exitDx=0;exitDy=0;entryX=0.5;entryY=0.5;entryDx=0;entryDy=0;entryPerimeter=0;startFill=0;" edge="1" parent="1" source="BZ3pMbnUHM3Q_ffKW0gH-4" target="BZ3pMbnUHM3Q_ffKW0gH-8">
          <mxGeometry width="50" height="50" relative="1" as="geometry">
            <mxPoint x="580" y="300" as="sourcePoint" />
            <mxPoint x="630" y="250" as="targetPoint" />
          </mxGeometry>
        </mxCell>
        <mxCell id="BZ3pMbnUHM3Q_ffKW0gH-14" value="&lt;font style=&quot;font-size: 24px;&quot;&gt;Mengirimkan Pesan ke Pihak Sekolah&lt;/font&gt;" style="ellipse;whiteSpace=wrap;html=1;" vertex="1" parent="1">
          <mxGeometry x="305" y="700" width="210" height="110" as="geometry" />
        </mxCell>
        <mxCell id="BZ3pMbnUHM3Q_ffKW0gH-15" value="&lt;span style=&quot;font-size: 24px;&quot;&gt;Tamu&lt;/span&gt;" style="shape=umlActor;verticalLabelPosition=bottom;verticalAlign=top;html=1;outlineConnect=0;" vertex="1" parent="1">
          <mxGeometry y="695" width="70" height="115" as="geometry" />
        </mxCell>
        <mxCell id="BZ3pMbnUHM3Q_ffKW0gH-16" value="" style="endArrow=none;html=1;rounded=0;exitX=0.5;exitY=0.5;exitDx=0;exitDy=0;exitPerimeter=0;entryX=0;entryY=0.5;entryDx=0;entryDy=0;startFill=0;" edge="1" parent="1" source="BZ3pMbnUHM3Q_ffKW0gH-15" target="BZ3pMbnUHM3Q_ffKW0gH-14">
          <mxGeometry width="50" height="50" relative="1" as="geometry">
            <mxPoint x="150" y="790" as="sourcePoint" />
            <mxPoint x="200" y="740" as="targetPoint" />
          </mxGeometry>
        </mxCell>
        <mxCell id="BZ3pMbnUHM3Q_ffKW0gH-17" value="&lt;font style=&quot;font-size: 24px;&quot;&gt;Register&lt;/font&gt;" style="ellipse;whiteSpace=wrap;html=1;" vertex="1" parent="1">
          <mxGeometry x="330" y="80" width="160" height="80" as="geometry" />
        </mxCell>
        <mxCell id="BZ3pMbnUHM3Q_ffKW0gH-18" value="" style="endArrow=none;html=1;rounded=0;exitX=0.5;exitY=0.5;exitDx=0;exitDy=0;exitPerimeter=0;entryX=0;entryY=0.5;entryDx=0;entryDy=0;startFill=0;" edge="1" parent="1" source="BZ3pMbnUHM3Q_ffKW0gH-15" target="BZ3pMbnUHM3Q_ffKW0gH-17">
          <mxGeometry width="50" height="50" relative="1" as="geometry">
            <mxPoint x="220" y="670" as="sourcePoint" />
            <mxPoint x="80" y="620" as="targetPoint" />
          </mxGeometry>
        </mxCell>
        <mxCell id="BZ3pMbnUHM3Q_ffKW0gH-20" value="" style="endArrow=none;html=1;rounded=0;exitX=0;exitY=0.5;exitDx=0;exitDy=0;entryX=0.5;entryY=0.5;entryDx=0;entryDy=0;entryPerimeter=0;" edge="1" parent="1" source="BZ3pMbnUHM3Q_ffKW0gH-4" target="BZ3pMbnUHM3Q_ffKW0gH-15">
          <mxGeometry width="50" height="50" relative="1" as="geometry">
            <mxPoint x="220" y="680" as="sourcePoint" />
            <mxPoint x="270" y="630" as="targetPoint" />
          </mxGeometry>
        </mxCell>
      </root>
    </mxGraphModel>
  </diagram>
</mxfile>
